<svg xmlns="http://www.w3.org/2000/svg" viewBox="0 0 100 100">
  <style>
    @media (prefers-color-scheme: dark) {
      svg { fill: white; }
    }
  </style>
  <path d="M 30.953125 0.037109375 L 30.953125 7.2265625 L 36.630859 7.2265625 L 36.630859 0.037109375 L 30.953125 0.037109375 z M 60.642578 12.660156 C 58.790767 12.660156 56.888282 12.86583 54.933594 13.277344 C 52.978906 13.668282 50.962908 14.263956 48.884766 15.066406 L 48.884766 20.314453 C 50.613121 19.367973 52.41277 18.656835 54.285156 18.183594 C 56.157542 17.710353 58.081377 17.474609 60.056641 17.474609 C 63.163566 17.474609 65.571518 18.194468 67.279297 19.634766 C 69.007653 21.054486 69.871094 23.070484 69.871094 25.683594 L 69.871094 26.240234 L 61.908203 26.240234 C 56.74371 26.240234 52.855297 27.227862 50.242188 29.203125 C 47.649655 31.178389 46.353516 34.109246 46.353516 37.998047 C 46.353516 41.331305 47.392561 43.996348 49.470703 45.992188 C 51.569421 47.96745 54.38872 48.955078 57.927734 48.955078 C 60.726024 48.955078 63.091278 48.460288 65.025391 47.472656 C 66.959503 46.464449 68.574827 44.911219 69.871094 42.8125 L 69.871094 48.060547 L 75.550781 48.060547 L 75.550781 28.337891 C 75.550781 23.07052 74.316736 19.141361 71.847656 16.548828 C 69.378576 13.956293 65.642463 12.660156 60.642578 12.660156 z M 30.953125 13.492188 L 30.953125 48.677734 C 30.953125 51.825811 30.56117 53.893228 29.779297 54.880859 C 28.99742 55.889067 27.527631 56.392578 25.367188 56.392578 L 23.853516 56.392578 L 23.853516 61.207031 L 26.013672 61.207031 C 29.737868 61.207031 32.434935 60.219405 34.101562 58.244141 C 35.788767 56.268877 36.630859 53.080926 36.630859 48.677734 L 36.630859 13.492188 L 30.953125 13.492188 z M 64.222656 30.683594 L 69.871094 30.683594 L 69.871094 31.949219 C 69.871094 35.652838 68.91549 38.626392 67.001953 40.869141 C 65.108992 43.091312 62.587529 44.201172 59.439453 44.201172 C 57.155554 44.201172 55.34523 43.616173 54.007812 42.443359 C 52.690971 41.249971 52.033203 39.645322 52.033203 37.628906 C 52.033203 35.0981 52.917993 33.307173 54.6875 32.257812 C 56.457008 31.208454 59.634284 30.683594 64.222656 30.683594 z M 50.794922 50.8125 L 50.794922 98.835938 L 56.503906 98.835938 L 56.503906 81.953125 L 74.066406 98.835938 L 81.472656 98.835938 L 62.369141 80.441406 L 80.701172 64.269531 L 73.449219 64.269531 L 56.503906 79.175781 L 56.503906 50.8125 L 50.794922 50.8125 z M 35.902344 63.435547 C 30.511519 63.435547 26.263175 65.050871 23.15625 68.28125 C 20.0699 71.51163 18.527344 75.946252 18.527344 81.583984 C 18.527344 87.139414 20.059227 91.552689 23.125 94.824219 C 26.190775 98.095747 30.32756 99.730469 35.533203 99.730469 C 37.44674 99.730469 39.246388 99.546141 40.933594 99.175781 C 42.641373 98.805422 44.286767 98.250493 45.871094 97.509766 L 45.871094 92.261719 C 44.26619 93.146471 42.652821 93.814913 41.027344 94.267578 C 39.422442 94.699667 37.796444 94.916016 36.150391 94.916016 C 32.467346 94.916016 29.607302 93.754737 27.570312 91.429688 C 25.533322 89.084061 24.513672 85.801995 24.513672 81.583984 C 24.513672 77.365973 25.533322 74.094581 27.570312 71.769531 C 29.607302 69.423905 32.467346 68.25 36.150391 68.25 C 37.796444 68.25 39.422442 68.477022 41.027344 68.929688 C 42.652822 69.361776 44.266191 70.019542 45.871094 70.904297 L 45.871094 65.595703 C 44.307342 64.875554 42.693973 64.341972 41.027344 63.992188 C 39.360715 63.621823 37.651274 63.435547 35.902344 63.435547 z " />
</svg>
